<mxfile host="app.diagrams.net" modified="2022-02-21T10:09:46.129Z" agent="5.0 (Windows NT 10.0; Win64; x64) AppleWebKit/537.36 (KHTML, like Gecko) Chrome/98.0.4758.82 Safari/537.36" etag="grojy6lfRFU8FCVqHfzv" version="15.9.6" type="github">
  <diagram id="TL5UxQqcXWMGM7SQSwtr" name="Page-1">
    <mxGraphModel dx="1422" dy="794" grid="1" gridSize="10" guides="1" tooltips="1" connect="1" arrows="1" fold="1" page="1" pageScale="1" pageWidth="1169" pageHeight="827" math="0" shadow="0">
      <root>
        <mxCell id="0" />
        <mxCell id="1" parent="0" />
        <mxCell id="V_gKk9-HJMqSHG7EkTyj-38" style="edgeStyle=orthogonalEdgeStyle;rounded=0;orthogonalLoop=1;jettySize=auto;html=1;exitX=0.75;exitY=0;exitDx=0;exitDy=0;entryX=0.25;entryY=1;entryDx=0;entryDy=0;" edge="1" parent="1" source="Dru1_VeHZppkcr4mtgWB-71" target="Dru1_VeHZppkcr4mtgWB-101">
          <mxGeometry relative="1" as="geometry" />
        </mxCell>
        <mxCell id="Dru1_VeHZppkcr4mtgWB-71" value="Drupal" style="rounded=1;whiteSpace=wrap;html=1;fillColor=#fff2cc;strokeColor=#d6b656;fontColor=default;" parent="1" vertex="1">
          <mxGeometry x="176" y="725" width="120" height="60" as="geometry" />
        </mxCell>
        <mxCell id="Dru1_VeHZppkcr4mtgWB-73" style="edgeStyle=orthogonalEdgeStyle;rounded=0;orthogonalLoop=1;jettySize=auto;html=1;exitX=0.5;exitY=0;exitDx=0;exitDy=0;entryX=0.5;entryY=1;entryDx=0;entryDy=0;" parent="1" source="Dru1_VeHZppkcr4mtgWB-71" target="Dru1_VeHZppkcr4mtgWB-90" edge="1">
          <mxGeometry relative="1" as="geometry">
            <Array as="points">
              <mxPoint x="233" y="725" />
            </Array>
          </mxGeometry>
        </mxCell>
        <mxCell id="Dru1_VeHZppkcr4mtgWB-81" style="edgeStyle=orthogonalEdgeStyle;rounded=0;orthogonalLoop=1;jettySize=auto;html=1;exitX=0.5;exitY=1;exitDx=0;exitDy=0;entryX=0.5;entryY=0;entryDx=0;entryDy=0;jumpStyle=arc;" parent="1" source="Dru1_VeHZppkcr4mtgWB-88" edge="1">
          <mxGeometry relative="1" as="geometry">
            <mxPoint x="88" y="725" as="targetPoint" />
          </mxGeometry>
        </mxCell>
        <mxCell id="Dru1_VeHZppkcr4mtgWB-87" style="edgeStyle=orthogonalEdgeStyle;rounded=0;orthogonalLoop=1;jettySize=auto;html=1;exitX=0;exitY=0.25;exitDx=0;exitDy=0;entryX=0.75;entryY=1;entryDx=0;entryDy=0;jumpStyle=arc;" parent="1" source="Dru1_VeHZppkcr4mtgWB-71" target="Dru1_VeHZppkcr4mtgWB-88" edge="1">
          <mxGeometry relative="1" as="geometry">
            <Array as="points">
              <mxPoint x="118" y="740" />
            </Array>
          </mxGeometry>
        </mxCell>
        <mxCell id="Dru1_VeHZppkcr4mtgWB-88" value="Midas" style="rounded=1;whiteSpace=wrap;html=1;fillColor=#f8cecc;strokeColor=#b85450;fontColor=default;" parent="1" vertex="1">
          <mxGeometry x="28" y="505" width="120" height="60" as="geometry" />
        </mxCell>
        <mxCell id="Dru1_VeHZppkcr4mtgWB-89" style="edgeStyle=orthogonalEdgeStyle;rounded=0;orthogonalLoop=1;jettySize=auto;html=1;exitX=0.75;exitY=0;exitDx=0;exitDy=0;entryX=0.25;entryY=1;entryDx=0;entryDy=0;" parent="1" source="Dru1_VeHZppkcr4mtgWB-114" target="Dru1_VeHZppkcr4mtgWB-130" edge="1">
          <mxGeometry relative="1" as="geometry">
            <Array as="points">
              <mxPoint x="448" y="705" />
              <mxPoint x="556" y="705" />
            </Array>
          </mxGeometry>
        </mxCell>
        <mxCell id="Dru1_VeHZppkcr4mtgWB-90" value="Mimer 3" style="rounded=1;whiteSpace=wrap;html=1;fillColor=#fad7ac;strokeColor=#b46504;" parent="1" vertex="1">
          <mxGeometry x="173" y="505" width="120" height="60" as="geometry" />
        </mxCell>
        <mxCell id="Dru1_VeHZppkcr4mtgWB-91" style="edgeStyle=orthogonalEdgeStyle;rounded=0;orthogonalLoop=1;jettySize=auto;html=1;exitX=0.75;exitY=0;exitDx=0;exitDy=0;entryX=0.25;entryY=1;entryDx=0;entryDy=0;" parent="1" source="Dru1_VeHZppkcr4mtgWB-94" target="Dru1_VeHZppkcr4mtgWB-100" edge="1">
          <mxGeometry relative="1" as="geometry">
            <Array as="points">
              <mxPoint x="218" y="355" />
              <mxPoint x="258" y="355" />
            </Array>
          </mxGeometry>
        </mxCell>
        <mxCell id="Dru1_VeHZppkcr4mtgWB-92" style="edgeStyle=orthogonalEdgeStyle;rounded=0;orthogonalLoop=1;jettySize=auto;html=1;exitX=0.5;exitY=0;exitDx=0;exitDy=0;entryX=0.5;entryY=1;entryDx=0;entryDy=0;" parent="1" source="Dru1_VeHZppkcr4mtgWB-94" target="Dru1_VeHZppkcr4mtgWB-98" edge="1">
          <mxGeometry relative="1" as="geometry" />
        </mxCell>
        <mxCell id="Dru1_VeHZppkcr4mtgWB-93" style="edgeStyle=orthogonalEdgeStyle;rounded=0;jumpStyle=arc;orthogonalLoop=1;jettySize=auto;html=1;exitX=0.5;exitY=1;exitDx=0;exitDy=0;entryX=0.25;entryY=0;entryDx=0;entryDy=0;strokeColor=#000000;" parent="1" source="Dru1_VeHZppkcr4mtgWB-94" target="Dru1_VeHZppkcr4mtgWB-90" edge="1">
          <mxGeometry relative="1" as="geometry">
            <Array as="points">
              <mxPoint x="188" y="485" />
              <mxPoint x="203" y="485" />
            </Array>
          </mxGeometry>
        </mxCell>
        <mxCell id="Dru1_VeHZppkcr4mtgWB-94" value="Nyhedsapp Backend" style="rounded=1;whiteSpace=wrap;html=1;fillColor=#b1ddf0;strokeColor=#10739e;" parent="1" vertex="1">
          <mxGeometry x="128" y="385" width="120" height="60" as="geometry" />
        </mxCell>
        <mxCell id="Dru1_VeHZppkcr4mtgWB-95" value="" style="shape=cylinder3;whiteSpace=wrap;html=1;boundedLbl=1;backgroundOutline=1;size=15;" parent="1" vertex="1">
          <mxGeometry x="278" y="768" width="20" height="40" as="geometry" />
        </mxCell>
        <mxCell id="Dru1_VeHZppkcr4mtgWB-98" value="Nyhedsapp&lt;br&gt;IOS / Android" style="rounded=1;whiteSpace=wrap;html=1;fillColor=#0050ef;strokeColor=#001DBC;fontColor=#ffffff;" parent="1" vertex="1">
          <mxGeometry x="78" y="265" width="120" height="60" as="geometry" />
        </mxCell>
        <mxCell id="Dru1_VeHZppkcr4mtgWB-99" style="edgeStyle=orthogonalEdgeStyle;rounded=0;orthogonalLoop=1;jettySize=auto;html=1;exitX=0;exitY=0.5;exitDx=0;exitDy=0;entryX=1;entryY=0.5;entryDx=0;entryDy=0;" parent="1" source="Dru1_VeHZppkcr4mtgWB-100" target="Dru1_VeHZppkcr4mtgWB-98" edge="1">
          <mxGeometry relative="1" as="geometry" />
        </mxCell>
        <mxCell id="Dru1_VeHZppkcr4mtgWB-100" value="Firebase" style="rounded=1;whiteSpace=wrap;html=1;" parent="1" vertex="1">
          <mxGeometry x="228" y="265" width="120" height="60" as="geometry" />
        </mxCell>
        <mxCell id="Dru1_VeHZppkcr4mtgWB-101" value="GarnnÃ¸gle" style="rounded=1;whiteSpace=wrap;html=1;fillColor=#f8cecc;strokeColor=#b85450;" parent="1" vertex="1">
          <mxGeometry x="293" y="625" width="120" height="60" as="geometry" />
        </mxCell>
        <mxCell id="Dru1_VeHZppkcr4mtgWB-102" value="" style="shape=cylinder3;whiteSpace=wrap;html=1;boundedLbl=1;backgroundOutline=1;size=15;" parent="1" vertex="1">
          <mxGeometry x="400" y="661" width="20" height="40" as="geometry" />
        </mxCell>
        <mxCell id="Dru1_VeHZppkcr4mtgWB-104" style="edgeStyle=orthogonalEdgeStyle;rounded=0;orthogonalLoop=1;jettySize=auto;html=1;exitX=0.75;exitY=1;exitDx=0;exitDy=0;jumpStyle=arc;" parent="1" target="Dru1_VeHZppkcr4mtgWB-105" edge="1">
          <mxGeometry relative="1" as="geometry">
            <Array as="points">
              <mxPoint x="213" y="465" />
              <mxPoint x="450" y="465" />
            </Array>
            <mxPoint x="213" y="445" as="sourcePoint" />
            <mxPoint x="514" y="725" as="targetPoint" />
          </mxGeometry>
        </mxCell>
        <mxCell id="Dru1_VeHZppkcr4mtgWB-105" value="Dr. Edition" style="rounded=1;whiteSpace=wrap;html=1;fillColor=#fff2cc;strokeColor=#d6b656;" parent="1" vertex="1">
          <mxGeometry x="407" y="725" width="120" height="60" as="geometry" />
        </mxCell>
        <mxCell id="Dru1_VeHZppkcr4mtgWB-106" value="" style="shape=cylinder3;whiteSpace=wrap;html=1;boundedLbl=1;backgroundOutline=1;size=15;" parent="1" vertex="1">
          <mxGeometry x="507" y="758" width="20" height="40" as="geometry" />
        </mxCell>
        <mxCell id="Dru1_VeHZppkcr4mtgWB-108" value="" style="ellipse;shape=cloud;whiteSpace=wrap;html=1;" parent="1" vertex="1">
          <mxGeometry x="263" y="550" width="50" height="30" as="geometry" />
        </mxCell>
        <mxCell id="V_gKk9-HJMqSHG7EkTyj-40" style="edgeStyle=orthogonalEdgeStyle;rounded=0;orthogonalLoop=1;jettySize=auto;html=1;exitX=0.25;exitY=0;exitDx=0;exitDy=0;entryX=1;entryY=0.25;entryDx=0;entryDy=0;" edge="1" parent="1" source="Dru1_VeHZppkcr4mtgWB-114" target="Dru1_VeHZppkcr4mtgWB-71">
          <mxGeometry relative="1" as="geometry">
            <Array as="points">
              <mxPoint x="331" y="740" />
            </Array>
          </mxGeometry>
        </mxCell>
        <mxCell id="Dru1_VeHZppkcr4mtgWB-114" value="RG" style="rounded=1;whiteSpace=wrap;html=1;fillColor=#fff2cc;strokeColor=#d6b656;" parent="1" vertex="1">
          <mxGeometry x="320" y="758" width="43" height="30" as="geometry" />
        </mxCell>
        <mxCell id="Dru1_VeHZppkcr4mtgWB-121" style="edgeStyle=orthogonalEdgeStyle;rounded=0;jumpStyle=arc;orthogonalLoop=1;jettySize=auto;html=1;exitX=0;exitY=1;exitDx=0;exitDy=0;exitPerimeter=0;entryX=0.5;entryY=0;entryDx=0;entryDy=0;" parent="1" target="Dru1_VeHZppkcr4mtgWB-98" edge="1">
          <mxGeometry relative="1" as="geometry">
            <mxPoint x="308" y="207" as="sourcePoint" />
            <mxPoint x="138" y="268" as="targetPoint" />
            <Array as="points">
              <mxPoint x="138" y="207" />
            </Array>
          </mxGeometry>
        </mxCell>
        <mxCell id="Dru1_VeHZppkcr4mtgWB-123" value="Bruger" style="shape=umlActor;verticalLabelPosition=bottom;verticalAlign=top;html=1;outlineConnect=0;" parent="1" vertex="1">
          <mxGeometry x="308" y="144" width="30" height="60" as="geometry" />
        </mxCell>
        <mxCell id="Dru1_VeHZppkcr4mtgWB-127" style="edgeStyle=orthogonalEdgeStyle;rounded=0;jumpStyle=arc;orthogonalLoop=1;jettySize=auto;html=1;exitX=0.25;exitY=0;exitDx=0;exitDy=0;entryX=0.25;entryY=1;entryDx=0;entryDy=0;strokeColor=#000000;" parent="1" source="Dru1_VeHZppkcr4mtgWB-128" target="Dru1_VeHZppkcr4mtgWB-132" edge="1">
          <mxGeometry relative="1" as="geometry" />
        </mxCell>
        <mxCell id="Dru1_VeHZppkcr4mtgWB-128" value="Nyhedsapp push Service" style="rounded=1;whiteSpace=wrap;html=1;fillColor=#b1ddf0;strokeColor=#10739e;" parent="1" vertex="1">
          <mxGeometry x="457" y="385" width="120" height="60" as="geometry" />
        </mxCell>
        <mxCell id="Dru1_VeHZppkcr4mtgWB-129" style="edgeStyle=orthogonalEdgeStyle;rounded=0;jumpStyle=arc;orthogonalLoop=1;jettySize=auto;html=1;exitX=0.25;exitY=0;exitDx=0;exitDy=0;entryX=0.25;entryY=1;entryDx=0;entryDy=0;strokeColor=#000000;" parent="1" source="Dru1_VeHZppkcr4mtgWB-130" target="Dru1_VeHZppkcr4mtgWB-128" edge="1">
          <mxGeometry relative="1" as="geometry" />
        </mxCell>
        <mxCell id="Dru1_VeHZppkcr4mtgWB-130" value="SMD" style="rounded=1;whiteSpace=wrap;html=1;fillColor=#f8cecc;strokeColor=#b85450;" parent="1" vertex="1">
          <mxGeometry x="457" y="535" width="120" height="60" as="geometry" />
        </mxCell>
        <mxCell id="Dru1_VeHZppkcr4mtgWB-131" style="edgeStyle=orthogonalEdgeStyle;rounded=0;jumpStyle=arc;orthogonalLoop=1;jettySize=auto;html=1;exitX=0.25;exitY=0;exitDx=0;exitDy=0;entryX=0.75;entryY=0;entryDx=0;entryDy=0;strokeColor=#000000;" parent="1" source="Dru1_VeHZppkcr4mtgWB-132" target="Dru1_VeHZppkcr4mtgWB-98" edge="1">
          <mxGeometry relative="1" as="geometry">
            <Array as="points">
              <mxPoint x="487" y="235" />
              <mxPoint x="168" y="235" />
            </Array>
          </mxGeometry>
        </mxCell>
        <mxCell id="Dru1_VeHZppkcr4mtgWB-132" value="Batch" style="rounded=1;whiteSpace=wrap;html=1;" parent="1" vertex="1">
          <mxGeometry x="457" y="275" width="120" height="60" as="geometry" />
        </mxCell>
        <mxCell id="Dru1_VeHZppkcr4mtgWB-133" style="edgeStyle=orthogonalEdgeStyle;rounded=0;jumpStyle=arc;orthogonalLoop=1;jettySize=auto;html=1;exitX=0.75;exitY=0;exitDx=0;exitDy=0;entryX=0;entryY=0.5;entryDx=0;entryDy=0;strokeColor=#000000;" parent="1" source="Dru1_VeHZppkcr4mtgWB-134" target="Dru1_VeHZppkcr4mtgWB-128" edge="1">
          <mxGeometry relative="1" as="geometry" />
        </mxCell>
        <mxCell id="Dru1_VeHZppkcr4mtgWB-134" value="DRIP" style="rounded=1;whiteSpace=wrap;html=1;fillColor=#f8cecc;strokeColor=#b85450;fontColor=default;" parent="1" vertex="1">
          <mxGeometry x="320" y="505" width="120" height="60" as="geometry" />
        </mxCell>
        <mxCell id="Dru1_VeHZppkcr4mtgWB-135" style="edgeStyle=orthogonalEdgeStyle;rounded=0;jumpStyle=arc;orthogonalLoop=1;jettySize=auto;html=1;exitX=0.5;exitY=0;exitDx=0;exitDy=0;entryX=0.5;entryY=1;entryDx=0;entryDy=0;strokeColor=#000000;" parent="1" source="Dru1_VeHZppkcr4mtgWB-101" target="Dru1_VeHZppkcr4mtgWB-134" edge="1">
          <mxGeometry relative="1" as="geometry" />
        </mxCell>
        <mxCell id="Dru1_VeHZppkcr4mtgWB-137" style="edgeStyle=orthogonalEdgeStyle;rounded=0;jumpStyle=arc;orthogonalLoop=1;jettySize=auto;html=1;exitX=0.25;exitY=1;exitDx=0;exitDy=0;entryX=0.75;entryY=0;entryDx=0;entryDy=0;" parent="1" source="Dru1_VeHZppkcr4mtgWB-98" target="Dru1_VeHZppkcr4mtgWB-88" edge="1">
          <mxGeometry relative="1" as="geometry">
            <Array as="points">
              <mxPoint x="118" y="325" />
            </Array>
          </mxGeometry>
        </mxCell>
        <mxCell id="Dru1_VeHZppkcr4mtgWB-138" value="" style="ellipse;shape=cloud;whiteSpace=wrap;html=1;fillColor=default;strokeColor=default;fontColor=default;" parent="1" vertex="1">
          <mxGeometry x="750" y="20" width="50" height="30" as="geometry" />
        </mxCell>
        <mxCell id="Dru1_VeHZppkcr4mtgWB-139" value="" style="shape=cylinder3;whiteSpace=wrap;html=1;boundedLbl=1;backgroundOutline=1;size=15;fillColor=default;strokeColor=default;fontColor=default;" parent="1" vertex="1">
          <mxGeometry x="765" y="60" width="20" height="40" as="geometry" />
        </mxCell>
        <mxCell id="Dru1_VeHZppkcr4mtgWB-140" value="Opbevaring af kildedata" style="text;html=1;align=center;verticalAlign=middle;resizable=0;points=[];autosize=1;strokeColor=none;fillColor=none;fontColor=default;" parent="1" vertex="1">
          <mxGeometry x="790" y="70" width="140" height="20" as="geometry" />
        </mxCell>
        <mxCell id="Dru1_VeHZppkcr4mtgWB-141" value="Midlertidigt lager / Cache" style="text;html=1;align=center;verticalAlign=middle;resizable=0;points=[];autosize=1;strokeColor=none;fillColor=none;fontColor=default;" parent="1" vertex="1">
          <mxGeometry x="800" y="30" width="150" height="20" as="geometry" />
        </mxCell>
        <mxCell id="Dru1_VeHZppkcr4mtgWB-142" value="Front end product" style="rounded=1;whiteSpace=wrap;html=1;fillColor=#0050ef;strokeColor=#001DBC;fontColor=#ffffff;" parent="1" vertex="1">
          <mxGeometry x="950" y="10" width="70" height="30" as="geometry" />
        </mxCell>
        <mxCell id="Dru1_VeHZppkcr4mtgWB-143" value="Product Service" style="rounded=1;whiteSpace=wrap;html=1;fillColor=#ffcc99;strokeColor=#36393d;fontColor=default;" parent="1" vertex="1">
          <mxGeometry x="950" y="50" width="70" height="30" as="geometry" />
        </mxCell>
        <mxCell id="Dru1_VeHZppkcr4mtgWB-144" value="Content Aggregation" style="rounded=1;whiteSpace=wrap;html=1;fillColor=#b1ddf0;strokeColor=#10739e;fontColor=default;" parent="1" vertex="1">
          <mxGeometry x="950" y="90" width="70" height="30" as="geometry" />
        </mxCell>
        <mxCell id="Dru1_VeHZppkcr4mtgWB-145" value="Platform Service" style="rounded=1;whiteSpace=wrap;html=1;fillColor=#f8cecc;strokeColor=#b85450;fontColor=default;" parent="1" vertex="1">
          <mxGeometry x="1030" y="10" width="70" height="30" as="geometry" />
        </mxCell>
        <mxCell id="Dru1_VeHZppkcr4mtgWB-146" value="Content Service" style="rounded=1;whiteSpace=wrap;html=1;fillColor=#fad7ac;strokeColor=#b46504;fontColor=default;" parent="1" vertex="1">
          <mxGeometry x="1030" y="50" width="70" height="30" as="geometry" />
        </mxCell>
        <mxCell id="Dru1_VeHZppkcr4mtgWB-147" value="Content Source" style="rounded=1;whiteSpace=wrap;html=1;fillColor=#fff2cc;strokeColor=#d6b656;fontColor=default;" parent="1" vertex="1">
          <mxGeometry x="1030" y="90" width="70" height="30" as="geometry" />
        </mxCell>
        <mxCell id="Dru1_VeHZppkcr4mtgWB-148" value="" style="shape=message;html=1;outlineConnect=0;fillColor=default;strokeColor=default;fontColor=default;" parent="1" vertex="1">
          <mxGeometry x="765" y="106" width="20" height="14" as="geometry" />
        </mxCell>
        <mxCell id="Dru1_VeHZppkcr4mtgWB-149" value="Event drevent kommunikation" style="text;html=1;align=center;verticalAlign=middle;resizable=0;points=[];autosize=1;strokeColor=none;fillColor=none;fontColor=default;" parent="1" vertex="1">
          <mxGeometry x="780" y="100" width="170" height="20" as="geometry" />
        </mxCell>
        <mxCell id="V_gKk9-HJMqSHG7EkTyj-4" value="Oembed Sources" style="text;html=1;strokeColor=none;fillColor=none;align=center;verticalAlign=middle;whiteSpace=wrap;rounded=0;" vertex="1" parent="1">
          <mxGeometry x="58" y="725" width="60" height="30" as="geometry" />
        </mxCell>
        <mxCell id="V_gKk9-HJMqSHG7EkTyj-7" style="edgeStyle=orthogonalEdgeStyle;rounded=0;orthogonalLoop=1;jettySize=auto;html=1;exitX=0;exitY=1;exitDx=0;exitDy=0;exitPerimeter=0;entryX=0.25;entryY=0;entryDx=0;entryDy=0;" edge="1" parent="1" source="V_gKk9-HJMqSHG7EkTyj-5" target="V_gKk9-HJMqSHG7EkTyj-6">
          <mxGeometry relative="1" as="geometry" />
        </mxCell>
        <mxCell id="V_gKk9-HJMqSHG7EkTyj-5" value="Bruger" style="shape=umlActor;verticalLabelPosition=bottom;verticalAlign=top;html=1;outlineConnect=0;" vertex="1" parent="1">
          <mxGeometry x="855" y="130" width="30" height="60" as="geometry" />
        </mxCell>
        <mxCell id="V_gKk9-HJMqSHG7EkTyj-9" style="edgeStyle=orthogonalEdgeStyle;rounded=0;orthogonalLoop=1;jettySize=auto;html=1;exitX=0.5;exitY=1;exitDx=0;exitDy=0;entryX=0.5;entryY=0;entryDx=0;entryDy=0;" edge="1" parent="1" source="V_gKk9-HJMqSHG7EkTyj-6" target="V_gKk9-HJMqSHG7EkTyj-8">
          <mxGeometry relative="1" as="geometry" />
        </mxCell>
        <mxCell id="V_gKk9-HJMqSHG7EkTyj-6" value="Nyhedsapp&lt;br&gt;IOS / Android" style="rounded=1;whiteSpace=wrap;html=1;fillColor=#0050ef;strokeColor=#001DBC;fontColor=#ffffff;" vertex="1" parent="1">
          <mxGeometry x="825" y="230" width="120" height="60" as="geometry" />
        </mxCell>
        <mxCell id="V_gKk9-HJMqSHG7EkTyj-11" style="edgeStyle=orthogonalEdgeStyle;rounded=0;orthogonalLoop=1;jettySize=auto;html=1;exitX=0.5;exitY=1;exitDx=0;exitDy=0;entryX=0.5;entryY=0;entryDx=0;entryDy=0;" edge="1" parent="1" source="V_gKk9-HJMqSHG7EkTyj-8" target="V_gKk9-HJMqSHG7EkTyj-10">
          <mxGeometry relative="1" as="geometry" />
        </mxCell>
        <mxCell id="V_gKk9-HJMqSHG7EkTyj-44" style="edgeStyle=orthogonalEdgeStyle;rounded=0;jumpStyle=arc;orthogonalLoop=1;jettySize=auto;html=1;exitX=1;exitY=0.5;exitDx=0;exitDy=0;entryX=0.5;entryY=0;entryDx=0;entryDy=0;dashed=1;" edge="1" parent="1" source="V_gKk9-HJMqSHG7EkTyj-8" target="V_gKk9-HJMqSHG7EkTyj-13">
          <mxGeometry relative="1" as="geometry" />
        </mxCell>
        <mxCell id="V_gKk9-HJMqSHG7EkTyj-8" value="Kimaira" style="rounded=1;whiteSpace=wrap;html=1;fillColor=#0050ef;strokeColor=#001DBC;fontColor=#ffffff;" vertex="1" parent="1">
          <mxGeometry x="825" y="310" width="120" height="60" as="geometry" />
        </mxCell>
        <mxCell id="V_gKk9-HJMqSHG7EkTyj-10" value="Steffi" style="rounded=1;whiteSpace=wrap;html=1;fillColor=#b1ddf0;strokeColor=#10739e;fontColor=default;" vertex="1" parent="1">
          <mxGeometry x="825" y="400" width="120" height="60" as="geometry" />
        </mxCell>
        <mxCell id="V_gKk9-HJMqSHG7EkTyj-13" value="CAS" style="rounded=1;whiteSpace=wrap;html=1;fillColor=#b1ddf0;strokeColor=#10739e;fontColor=default;" vertex="1" parent="1">
          <mxGeometry x="986" y="400" width="120" height="60" as="geometry" />
        </mxCell>
        <mxCell id="V_gKk9-HJMqSHG7EkTyj-20" style="edgeStyle=orthogonalEdgeStyle;rounded=0;orthogonalLoop=1;jettySize=auto;html=1;exitX=0.5;exitY=0;exitDx=0;exitDy=0;entryX=0.5;entryY=1;entryDx=0;entryDy=0;" edge="1" parent="1" source="V_gKk9-HJMqSHG7EkTyj-16" target="V_gKk9-HJMqSHG7EkTyj-17">
          <mxGeometry relative="1" as="geometry" />
        </mxCell>
        <mxCell id="V_gKk9-HJMqSHG7EkTyj-16" value="Drupal" style="rounded=1;whiteSpace=wrap;html=1;fillColor=#fff2cc;strokeColor=#d6b656;fontColor=default;" vertex="1" parent="1">
          <mxGeometry x="825" y="728" width="120" height="60" as="geometry" />
        </mxCell>
        <mxCell id="V_gKk9-HJMqSHG7EkTyj-21" style="edgeStyle=orthogonalEdgeStyle;rounded=0;orthogonalLoop=1;jettySize=auto;html=1;exitX=0.5;exitY=0;exitDx=0;exitDy=0;entryX=0.5;entryY=1;entryDx=0;entryDy=0;" edge="1" parent="1" source="V_gKk9-HJMqSHG7EkTyj-17" target="V_gKk9-HJMqSHG7EkTyj-19">
          <mxGeometry relative="1" as="geometry" />
        </mxCell>
        <mxCell id="V_gKk9-HJMqSHG7EkTyj-17" value="Drupal Entity API" style="rounded=1;whiteSpace=wrap;html=1;fillColor=#fff2cc;strokeColor=#d6b656;" vertex="1" parent="1">
          <mxGeometry x="825" y="678" width="120" height="30" as="geometry" />
        </mxCell>
        <mxCell id="V_gKk9-HJMqSHG7EkTyj-18" value="" style="shape=cylinder3;whiteSpace=wrap;html=1;boundedLbl=1;backgroundOutline=1;size=15;" vertex="1" parent="1">
          <mxGeometry x="925" y="768" width="20" height="40" as="geometry" />
        </mxCell>
        <mxCell id="V_gKk9-HJMqSHG7EkTyj-23" style="edgeStyle=orthogonalEdgeStyle;rounded=0;orthogonalLoop=1;jettySize=auto;html=1;exitX=0.5;exitY=0;exitDx=0;exitDy=0;entryX=0.25;entryY=1;entryDx=0;entryDy=0;" edge="1" parent="1" source="V_gKk9-HJMqSHG7EkTyj-19" target="V_gKk9-HJMqSHG7EkTyj-13">
          <mxGeometry relative="1" as="geometry" />
        </mxCell>
        <mxCell id="V_gKk9-HJMqSHG7EkTyj-30" style="edgeStyle=orthogonalEdgeStyle;rounded=0;orthogonalLoop=1;jettySize=auto;html=1;exitX=0.75;exitY=1;exitDx=0;exitDy=0;entryX=0.5;entryY=0;entryDx=0;entryDy=0;" edge="1" parent="1" source="V_gKk9-HJMqSHG7EkTyj-13" target="V_gKk9-HJMqSHG7EkTyj-25">
          <mxGeometry relative="1" as="geometry" />
        </mxCell>
        <mxCell id="V_gKk9-HJMqSHG7EkTyj-41" style="edgeStyle=orthogonalEdgeStyle;rounded=0;orthogonalLoop=1;jettySize=auto;html=1;exitX=0;exitY=0.5;exitDx=0;exitDy=0;entryX=1;entryY=0.5;entryDx=0;entryDy=0;" edge="1" parent="1" source="V_gKk9-HJMqSHG7EkTyj-19" target="V_gKk9-HJMqSHG7EkTyj-31">
          <mxGeometry relative="1" as="geometry" />
        </mxCell>
        <mxCell id="V_gKk9-HJMqSHG7EkTyj-19" value="CSX" style="rounded=1;whiteSpace=wrap;html=1;fillColor=#fad7ac;strokeColor=#b46504;" vertex="1" parent="1">
          <mxGeometry x="825" y="532" width="120" height="60" as="geometry" />
        </mxCell>
        <mxCell id="V_gKk9-HJMqSHG7EkTyj-22" value="" style="shape=message;html=1;outlineConnect=0;fillColor=default;strokeColor=default;fontColor=default;" vertex="1" parent="1">
          <mxGeometry x="885" y="625" width="20" height="14" as="geometry" />
        </mxCell>
        <mxCell id="V_gKk9-HJMqSHG7EkTyj-24" value="" style="shape=message;html=1;outlineConnect=0;fillColor=default;strokeColor=default;fontColor=default;" vertex="1" parent="1">
          <mxGeometry x="972.5" y="491" width="20" height="14" as="geometry" />
        </mxCell>
        <mxCell id="V_gKk9-HJMqSHG7EkTyj-29" style="edgeStyle=orthogonalEdgeStyle;rounded=0;orthogonalLoop=1;jettySize=auto;html=1;exitX=0.25;exitY=0;exitDx=0;exitDy=0;entryX=0.5;entryY=1;entryDx=0;entryDy=0;" edge="1" parent="1" source="V_gKk9-HJMqSHG7EkTyj-25" target="V_gKk9-HJMqSHG7EkTyj-13">
          <mxGeometry relative="1" as="geometry" />
        </mxCell>
        <mxCell id="V_gKk9-HJMqSHG7EkTyj-25" value="Dr. Edition" style="rounded=1;whiteSpace=wrap;html=1;fillColor=#fff2cc;strokeColor=#d6b656;" vertex="1" parent="1">
          <mxGeometry x="1016" y="725" width="120" height="60" as="geometry" />
        </mxCell>
        <mxCell id="V_gKk9-HJMqSHG7EkTyj-26" value="" style="shape=cylinder3;whiteSpace=wrap;html=1;boundedLbl=1;backgroundOutline=1;size=15;" vertex="1" parent="1">
          <mxGeometry x="1125" y="765" width="20" height="40" as="geometry" />
        </mxCell>
        <mxCell id="V_gKk9-HJMqSHG7EkTyj-28" style="edgeStyle=orthogonalEdgeStyle;rounded=0;orthogonalLoop=1;jettySize=auto;html=1;exitX=0.25;exitY=0;exitDx=0;exitDy=0;entryX=1;entryY=0.25;entryDx=0;entryDy=0;" edge="1" parent="1" source="V_gKk9-HJMqSHG7EkTyj-27" target="V_gKk9-HJMqSHG7EkTyj-16">
          <mxGeometry relative="1" as="geometry">
            <Array as="points">
              <mxPoint x="971" y="743" />
            </Array>
          </mxGeometry>
        </mxCell>
        <mxCell id="V_gKk9-HJMqSHG7EkTyj-27" value="RG" style="rounded=1;whiteSpace=wrap;html=1;fillColor=#fff2cc;strokeColor=#d6b656;" vertex="1" parent="1">
          <mxGeometry x="960" y="755" width="45" height="30" as="geometry" />
        </mxCell>
        <mxCell id="V_gKk9-HJMqSHG7EkTyj-42" style="edgeStyle=orthogonalEdgeStyle;rounded=0;orthogonalLoop=1;jettySize=auto;html=1;exitX=0.5;exitY=0;exitDx=0;exitDy=0;entryX=0.5;entryY=1;entryDx=0;entryDy=0;" edge="1" parent="1" source="V_gKk9-HJMqSHG7EkTyj-31" target="V_gKk9-HJMqSHG7EkTyj-32">
          <mxGeometry relative="1" as="geometry" />
        </mxCell>
        <mxCell id="V_gKk9-HJMqSHG7EkTyj-31" value="Ny Platform Push Service" style="rounded=1;whiteSpace=wrap;html=1;fillColor=#f8cecc;strokeColor=#b85450;" vertex="1" parent="1">
          <mxGeometry x="670" y="532" width="120" height="60" as="geometry" />
        </mxCell>
        <mxCell id="V_gKk9-HJMqSHG7EkTyj-36" style="edgeStyle=orthogonalEdgeStyle;rounded=0;orthogonalLoop=1;jettySize=auto;html=1;exitX=0.5;exitY=0;exitDx=0;exitDy=0;entryX=0.5;entryY=1;entryDx=0;entryDy=0;" edge="1" parent="1" source="V_gKk9-HJMqSHG7EkTyj-32" target="V_gKk9-HJMqSHG7EkTyj-34">
          <mxGeometry relative="1" as="geometry" />
        </mxCell>
        <mxCell id="V_gKk9-HJMqSHG7EkTyj-43" style="edgeStyle=orthogonalEdgeStyle;rounded=0;orthogonalLoop=1;jettySize=auto;html=1;exitX=0.75;exitY=0;exitDx=0;exitDy=0;entryX=0.25;entryY=0;entryDx=0;entryDy=0;jumpStyle=arc;" edge="1" parent="1" source="V_gKk9-HJMqSHG7EkTyj-32" target="V_gKk9-HJMqSHG7EkTyj-13">
          <mxGeometry relative="1" as="geometry" />
        </mxCell>
        <mxCell id="V_gKk9-HJMqSHG7EkTyj-32" value="Nyhedsapp Push Service" style="rounded=1;whiteSpace=wrap;html=1;fillColor=#ffcc99;strokeColor=#36393d;" vertex="1" parent="1">
          <mxGeometry x="670" y="400" width="120" height="60" as="geometry" />
        </mxCell>
        <mxCell id="V_gKk9-HJMqSHG7EkTyj-35" style="edgeStyle=orthogonalEdgeStyle;rounded=0;orthogonalLoop=1;jettySize=auto;html=1;exitX=0.5;exitY=0;exitDx=0;exitDy=0;entryX=0;entryY=0.5;entryDx=0;entryDy=0;" edge="1" parent="1" source="V_gKk9-HJMqSHG7EkTyj-34" target="V_gKk9-HJMqSHG7EkTyj-6">
          <mxGeometry relative="1" as="geometry" />
        </mxCell>
        <mxCell id="V_gKk9-HJMqSHG7EkTyj-34" value="?Batch? eller tilsvarende" style="rounded=1;whiteSpace=wrap;html=1;" vertex="1" parent="1">
          <mxGeometry x="670" y="290" width="120" height="60" as="geometry" />
        </mxCell>
        <mxCell id="V_gKk9-HJMqSHG7EkTyj-45" value="&lt;ul&gt;&lt;li&gt;Steffi kalder stadig mimer 4, indtil vi kan fÃ¥ gjort op med den kÃ¦de.&lt;/li&gt;&lt;li&gt;Vi bÃ¸r oprette en platform push service og en product service til push til nyhedsappen&lt;/li&gt;&lt;li&gt;NÃ¥r Push er fri af Mimer3 og Ny nyhedsapp afhÃ¦nger af Kimaira er Mimer3 redundant.&lt;/li&gt;&lt;/ul&gt;" style="shape=note;whiteSpace=wrap;html=1;backgroundOutline=1;darkOpacity=0.05;align=left;fillColor=#fff2cc;strokeColor=#d6b656;" vertex="1" parent="1">
          <mxGeometry x="960" y="140" width="200" height="190" as="geometry" />
        </mxCell>
        <mxCell id="V_gKk9-HJMqSHG7EkTyj-46" value="" style="shape=message;html=1;outlineConnect=0;fillColor=default;strokeColor=default;fontColor=default;" vertex="1" parent="1">
          <mxGeometry x="800" y="565" width="20" height="14" as="geometry" />
        </mxCell>
        <mxCell id="V_gKk9-HJMqSHG7EkTyj-47" value="" style="shape=message;html=1;outlineConnect=0;fillColor=default;strokeColor=default;fontColor=default;" vertex="1" parent="1">
          <mxGeometry x="730" y="491" width="20" height="14" as="geometry" />
        </mxCell>
        <mxCell id="V_gKk9-HJMqSHG7EkTyj-49" value="NuvÃ¦rende infrastruktur bag Nyhedsapp" style="text;html=1;strokeColor=none;fillColor=none;align=center;verticalAlign=middle;whiteSpace=wrap;rounded=0;" vertex="1" parent="1">
          <mxGeometry x="360" y="150" width="60" height="30" as="geometry" />
        </mxCell>
        <mxCell id="V_gKk9-HJMqSHG7EkTyj-53" value="Under Steffi / CAS fungerer platform og content services som de gÃ¸r for dr.dk og udelades derfor her." style="shape=note;whiteSpace=wrap;html=1;backgroundOutline=1;darkOpacity=0.05;align=left;fillColor=#fff2cc;strokeColor=#d6b656;" vertex="1" parent="1">
          <mxGeometry x="680" y="620" width="120" height="160" as="geometry" />
        </mxCell>
      </root>
    </mxGraphModel>
  </diagram>
</mxfile>
